<svg width="30" height="16" viewBox="0 0 30 16" fill="none" xmlns="http://www.w3.org/2000/svg">
<path d="M24.8106 0.856341V1.70281L24.4647 1.76626C23.9091 1.84804 22.8624 2.42191 22.4893 2.83128C22.298 3.04043 22.0432 3.44134 21.9065 3.72334C21.7062 4.16044 21.6696 4.35126 21.6696 5.09809C21.6696 5.85338 21.7062 6.03574 21.9337 6.53629C22.3986 7.53786 23.3907 8.23863 25.2204 8.83036C27.0863 9.44042 27.6325 9.89538 27.6325 10.8236C27.6325 11.1696 27.578 11.4243 27.4506 11.6339C26.9956 12.3803 25.3389 12.6444 24.3467 12.1255C23.7912 11.8435 23.4457 11.3153 23.4457 10.7419C23.4457 10.2046 23.4001 10.1863 22.2533 10.214L21.2156 10.2413L21.2245 10.897C21.2612 12.4536 22.4625 13.7734 24.1827 14.1282L24.7199 14.2372V14.993V15.7483H25.5664C26.1036 15.7483 26.4495 15.7116 26.5223 15.6393C26.5863 15.5753 26.6318 15.2661 26.6318 14.884V14.2283L27.1324 14.1193C28.3342 13.8462 29.3715 13.0632 29.7357 12.126C30.0544 11.3251 30.0271 10.16 29.6812 9.3953C29.2262 8.3848 28.2703 7.72022 26.3221 7.06504C24.6832 6.50903 24.1554 6.16311 23.9825 5.52626C23.7822 4.76157 24.0915 4.01521 24.7561 3.66929C25.1476 3.46907 26.2215 3.46907 26.6041 3.66929C27.123 3.94236 27.5418 4.67979 27.5418 5.32604C27.5418 5.87218 27.6508 5.9267 28.7708 5.89944L29.7719 5.87218L29.7992 5.38056C29.8904 3.74214 28.5795 2.06706 26.9773 1.77566L26.6314 1.71174V0.855871V3.24835e-07H25.721H24.8106V0.856341Z" fill="black"/>
<path d="M4.42999 1.75734C3.811 1.97589 3.69256 2.23063 1.80833 7.56466C-0.239929 13.3631 -0.257789 13.427 0.342871 13.982C0.743311 14.3463 1.17101 14.3914 1.53526 14.1094C1.77214 13.9181 2.09973 13.1718 2.5185 11.852L2.72765 11.1968H4.97613H7.22461L7.52494 12.08C7.67957 12.5716 7.90705 13.1812 8.01656 13.4364C8.40807 14.3195 9.06325 14.547 9.66438 13.9914C10.1377 13.5637 10.156 13.1995 9.76449 12.016C9.2912 10.5778 6.62395 3.20447 6.4054 2.71285C5.99556 1.80293 5.28539 1.45701 4.42999 1.75734ZM5.77701 6.70926C6.18685 7.9745 6.5417 9.07618 6.56896 9.14903C6.61455 9.26747 6.40493 9.2858 4.96673 9.2858C3.68316 9.2858 3.31891 9.25854 3.35557 9.16736C3.3739 9.11284 3.73768 7.9839 4.15645 6.67307C4.57522 5.36224 4.9484 4.31555 4.97566 4.35174C5.00339 4.3884 5.36717 5.45342 5.77701 6.70926Z" fill="black"/>
<path d="M12.076 1.93969C11.8212 2.01254 11.6027 2.13991 11.4842 2.30394C11.2929 2.55868 11.2929 2.64986 11.2657 7.90211C11.2384 13.8551 11.2384 13.8735 11.8207 14.1649C12.1756 14.3561 12.7401 14.2833 13.0225 14.0192C13.3595 13.7005 13.4324 13.1727 13.4324 10.9331V8.83036H14.0058C15.3622 8.83036 15.8082 9.2308 17.0189 11.4703C18.1841 13.6366 18.421 14.0008 18.7302 14.1649C19.4037 14.5108 20.2596 14.0286 20.2596 13.3095C20.2507 12.3262 18.7213 9.66837 17.6925 8.84916C17.3555 8.58502 17.3282 8.46705 17.6107 8.46705C17.8927 8.46705 18.8487 7.93924 19.2035 7.60225C19.3948 7.41096 19.6679 7.01945 19.7952 6.74638C20.0049 6.29142 20.0321 6.12739 20.0321 5.23533C20.0321 4.34327 20.0049 4.17924 19.7952 3.72428C19.2402 2.55022 18.4571 2.04027 17.01 1.90397C15.717 1.79399 12.5586 1.81232 12.076 1.93969ZM16.8004 3.82392C17.6925 4.06973 18.1385 5.22593 17.7197 6.15418C17.3921 6.87328 16.673 7.10076 14.7065 7.10076H13.4324V5.41675V3.73274H14.9618C15.7993 3.73274 16.6274 3.77833 16.8004 3.82392Z" fill="black"/>
</svg>
