<svg width="15" height="27" viewBox="0 0 15 27" fill="none" xmlns="http://www.w3.org/2000/svg">
<path d="M6.1678 1.46817V2.91942L5.57433 3.02821C4.62122 3.16842 2.82546 4.1523 2.18522 4.85415C1.85703 5.21273 1.41999 5.90008 1.18534 6.38356C0.841833 7.13296 0.778938 7.46011 0.778938 8.74053C0.778938 10.0355 0.841836 10.3481 1.23211 11.2063C2.02959 12.9234 3.73181 14.1249 6.87094 15.1394C10.0722 16.1853 11.0091 16.9654 11.0091 18.5568C11.0091 19.1499 10.9156 19.5866 10.6971 19.946C9.91654 21.2256 7.07414 21.6785 5.37193 20.7889C4.41882 20.3054 3.82615 19.3997 3.82615 18.4166C3.82615 17.4956 3.74793 17.4641 1.78043 17.5117L0 17.5584L0.0153239 18.6825C0.0782195 21.3513 2.13926 23.614 5.09051 24.2224L6.01217 24.4093V25.7051V27H7.46442C8.38608 27 8.97956 26.9371 9.10454 26.8131C9.2142 26.7035 9.29242 26.1732 9.29242 25.5181V24.394L10.1512 24.2071C12.213 23.7389 13.9927 22.3965 14.6176 20.7897C15.1643 19.4166 15.1175 17.419 14.524 16.108C13.7435 14.3755 12.1034 13.2361 8.76103 12.1128C5.94928 11.1595 5.04374 10.5665 4.74701 9.47462C4.4035 8.16358 4.93408 6.88397 6.07427 6.2909C6.74596 5.94762 8.58847 5.94762 9.24485 6.2909C10.1351 6.75907 10.8535 8.02337 10.8535 9.13135C10.8535 10.0677 11.0406 10.1612 12.9621 10.1144L14.6797 10.0677L14.7264 9.22482C14.8829 6.4158 12.634 3.54392 9.88509 3.04432L9.29162 2.93473V1.46737V0H7.72971H6.1678V1.46817Z" fill="black"/>
</svg>
